<svg id="Layer_1" data-name="Layer 1" xmlns="http://www.w3.org/2000/svg" viewBox="0 0 223.66 241.7"><defs><style>.cls-1{fill:#d0e8f9;}.cls-2{fill:#0096e6;}.cls-3{fill:#fff;}</style></defs><title>icon-sqlserver</title><g id="layer1-2"><path id="path3639" class="cls-1" d="M156.44,120.46l-47,15.31-40.82,18-11.44,3Q52.89,161,48,165.23c-3.6,3.13-7,6-9.56,8a72.79,72.79,0,0,0-9.31,9.23,41,41,0,0,0-6.87,11.65c-2,6-1,12,2.78,17.55,4.83,7.11,14.45,14.34,25.64,19.25a167,167,0,0,0,22.56,7.56c12,3,35.29,6.34,48.1,6.83a55.82,55.82,0,0,0,6.22,0,85.2,85.2,0,0,0,4.59-8.69c7.87-16.08,13.57-31.16,16.63-44A204.33,204.33,0,0,0,153,162.08c0.26-3.45.36-15,.16-18.88a132.35,132.35,0,0,0-1.79-16.66,4.26,4.26,0,0,1-.11-1.46c0.13-.11.57-0.25,6.34-1.93l-1.15-2.69h0Zm-10.73,6.3c0.43,0,1.56,10.88,1.86,17.78a8.81,8.81,0,0,1,0,2.41c-0.28,0-6-3.37-10.08-5.92-3.55-2.23-10.28-6.7-11.35-7.54-0.34-.26-0.3-0.28,2.6-1.28,4.94-1.7,16.64-5.45,17-5.45h0ZM121.8,134.6c0.3,0,1.13.46,3.08,1.68a222.74,222.74,0,0,0,21.49,12c1.32,0.58,1.47.35-1.57,2.41a157.18,157.18,0,0,1-24.38,13.1c-1.72.77-3.18,1.39-3.24,1.39a9.64,9.64,0,0,1,.42-1.95,102.31,102.31,0,0,0,3.78-24.94c0-3.54,0-3.56.35-3.64h0.06Zm-4.92,1.88a80.14,80.14,0,0,1-.2,10.31,90,90,0,0,1-3.26,15.45c-0.39,1.3-.75,2.43-0.81,2.49s-5-4.57-6.61-6.44a48,48,0,0,1-6.53-9.5,29.51,29.51,0,0,1-2-4.82c0.54-.4,19.25-7.63,19.38-7.49h0Zm-23.19,9.14a0.16,0.16,0,0,1,.1,0,8.54,8.54,0,0,1,.55,1.28,48,48,0,0,0,5.88,10.55,61,61,0,0,0,8.18,8.84l1.75,1.5c0.22,0.2.3,0.17-5.49,2.36-6.71,2.54-14,5.09-22.4,7.8l-6,1.95c-0.32.12-.22-0.08,0.71-1.54a197,197,0,0,0,14-28.24c0.61-1.56,1.19-3.13,1.3-3.48a1.16,1.16,0,0,1,.79-0.91,1.44,1.44,0,0,1,.63-0.16h0Zm-7.11,2.93a79.32,79.32,0,0,1-3.47,7.34c-3.44,6.7-7.22,13.29-12.25,21.33-0.87,1.39-1.67,2.65-1.77,2.81s-0.25.17-.8-0.92a32.29,32.29,0,0,1-2.73-8.22,33.07,33.07,0,0,1,.19-10.57c0.46-2.22.44-2.17,1.48-2.7C71.74,155.31,86.43,148.42,86.58,148.55ZM147.78,151v1.51a196.53,196.53,0,0,1-2.08,26.66c-0.22,1.39-.4,2.53-0.41,2.55s-1-.28-2.22-0.65a91.68,91.68,0,0,1-16.31-7c-3.45-1.89-8.44-5-8.3-5.1s1.51-.82,3.27-1.73a207.22,207.22,0,0,0,19.41-11.38c2.17-1.45,5.42-3.8,6.14-4.43Zm-88,10.49c0.14,0,.11.27-0.12,1.58-0.16.91-.34,2.63-0.4,3.81-0.29,5.19.56,9,3.13,14.26,0.72,1.46,1.28,2.67,1.25,2.7-0.26.22-23.73,7.08-31.11,9.1l-4.25,1.17c-0.26.08-.28,0-0.19-0.58,0.81-5.21,4.78-12,10.33-17.78a46.35,46.35,0,0,1,11.67-8.94c3.6-2.06,9.2-5.15,9.62-5.3h0.07Zm55.36,9.92a18.79,18.79,0,0,1,1.93,1A106.06,106.06,0,0,0,144.24,183l0.82,0.18-1.12.62c-4.71,2.61-20.22,9.07-36.07,15l-5,1.89a2.93,2.93,0,0,1-.8.26s0.65-1.29,1.45-2.79a175.72,175.72,0,0,0,11.17-25.44c0.23-.72.44-1.32,0.46-1.34h0Zm-5.64,1.85a13,13,0,0,1-.62,1.65,229.19,229.19,0,0,1-12.31,24.8c-1.31,2.33-2.42,4.24-2.46,4.23s-1.11-.64-2.38-1.41C84.2,198,77.54,192.29,73.17,186.77L72.54,186l3.24-.89a231,231,0,0,0,31.15-10.77c1.38-.59,2.53-1.06,2.55-1h0Zm35.06,12.24a0,0,0,0,1,0,0c0,0.79-1.79,8.09-3.28,13.37-1.25,4.43-2.3,7.9-4.25,14-0.86,2.71-1.6,4.93-1.64,4.92l-0.46-.09a146.59,146.59,0,0,1-28.83-8.12c-2.47-1-6-2.58-6.24-2.76a44.86,44.86,0,0,1,4.74-2.23c16.16-7,32.9-15.08,38.62-18.52a4.22,4.22,0,0,1,1.31-.63h0ZM63.62,188.3c0.09,0.08-4.43,6.55-10.74,15.39-2.19,3.07-4.77,6.69-5.73,8s-2.4,3.49-3.22,4.76l-1.49,2.3-1.59-1.34a63.18,63.18,0,0,1-6.61-6.74,29.07,29.07,0,0,1-5.93-11.46c-0.38-1.7-.39-2.56,0-2.67,0.52-.16,10-2.39,18.88-4.45,4.94-1.14,10.65-2.49,12.69-3s3.74-.88,3.76-0.86h0ZM68.17,190l1.14,1.28A66,66,0,0,0,86,204.93a9.17,9.17,0,0,1,1.9,1.25c-0.26.16-21.94,7.87-32,11.36-5.65,2-10.3,3.57-10.32,3.57s-0.35-.21-0.71-0.47l-0.65-.47,1-1.48c3.33-4.82,7.5-10.11,16.65-21.12L68.17,190h0Zm28.32,20.24s1.61,0.53,3.53,1.25a112.47,112.47,0,0,0,13.16,4.08,149.21,149.21,0,0,0,19.9,3.45c0.79,0.07,1.19.16,1.07,0.24s-5.46,1.9-9.3,3.1c-6.1,1.92-24.73,7.42-39.92,11.79-2.82.81-5.23,1.5-5.35,1.52a2.71,2.71,0,0,1-1.53-.4,28.25,28.25,0,0,1,1.89-2.39,214.82,214.82,0,0,0,14.41-19.38l2.15-3.27h0Zm-6.28.18s-2.47,4.08-6.9,11L78.6,229c-0.73,1.15-1.79,2.9-2.36,3.9l-1,1.81-0.53-.14c-1.27-.35-10.25-3.51-12.62-4.46a82.11,82.11,0,0,1-8.26-3.79c-2.82-1.52-6.4-3.79-6.12-3.87l10.78-2.95c15.55-4.24,24.16-6.67,29.8-8.43,1.05-.33,1.93-0.58,2-0.56h0Zm44.17,10.36h0.05c0.14,0.37-5.61,16.31-7.72,21.37-0.47,1.13-.65,1.41-0.89,1.4-0.6,0-8.95-1.19-14-2-8.85-1.34-23.66-3.93-27.4-4.78l-0.87-.19,5.3-1.19c11.36-2.56,16.82-3.93,22.36-5.63a161.44,161.44,0,0,0,20.88-8,20.44,20.44,0,0,1,2.28-1h0Z" transform="translate(-11.73 -11.04)"/><path id="path3667" class="cls-1" d="M108.05,11c-0.78-.09-13.39,4.45-21.48,7.74-11,4.46-19.49,8.73-24.74,12.41-2,1.37-4.41,3.84-4.77,4.79a3.49,3.49,0,0,0-.2,1.2l4.77,4.5,11.31,3.61L99.87,50.1l30.79,5.29L131,52.75l-0.27,0-4.05-.64-0.82-1.45c-4.18-7.38-8.81-16.52-11.49-22.71a120,120,0,0,1-5.18-14.3c-0.66-2.37-.73-2.53-1.09-2.57h0Zm-0.59,1.83h0.05s0.17,1,.31,2.2A74.62,74.62,0,0,0,111.28,30c1.31,3.9,1.33,3.67-.23,3.24-3.62-1-19.85-3.8-31.58-5.42C77.58,27.56,76,27.33,76,27.31s8.46-4.66,12.28-6.44C93.16,18.59,106.49,13,107.46,12.86ZM73.27,28.75l1.37,0.47c7.53,2.56,26.42,6.17,36.86,7,1.18,0.1,2.17.2,2.2,0.23a22.74,22.74,0,0,1-2.22,1.19c-5,2.52-10.58,5.6-14.41,8a13.38,13.38,0,0,1-2.3,1.26c-0.13,0-.88-0.13-1.65-0.26l-1.42-.23L88.13,43C81.88,36.93,77,32.24,75.1,30.47Zm-1.39,1.11,5,6.23c2.75,3.43,5.5,6.83,6.11,7.56A11.13,11.13,0,0,1,84,45c-0.14.1-7.23-1.28-11-2.14s-5.45-1.31-7.84-2.07l-1.95-.62V39.71c0-2.39,3-5.92,8.16-9.53l0.45-.31h0Zm42.49,8.49c0.15,0,.31.32,0.75,1.28,1.21,2.65,5,9.84,5.89,11.23,0.3,0.46.78,0.49-4.23-.32-12-1.94-15.9-2.59-15.9-2.67a3.51,3.51,0,0,1,.8-0.53,69.49,69.49,0,0,0,10.82-7.49l1.71-1.43a0.24,0.24,0,0,1,.16-0.07h0Z" transform="translate(-11.73 -11.04)"/><path id="path2851" class="cls-2" d="M57.27,35.5a3.52,3.52,0,0,0,0,3.07,14.59,14.59,0,0,0,3.33,3.95s15.77,15.38,17.7,17.61c8.74,10.08,12.53,20,12.88,33.72,0.22,8.8-1.47,16.53-5.59,25.51-7.39,16.11-22.94,33.87-47,53.62l3.53-1.17c2.27-1.7,5.35-3.51,12.61-7.49,16.73-9.15,35.51-17.56,58.58-26.23,33.2-12.47,87.8-27.11,118.87-31.87l3.24-.5-0.5-.78a105.87,105.87,0,0,0-7.11-10,85.21,85.21,0,0,0-25.17-21c-13.89-7.78-31.91-13.82-54.68-18.35-4.31-.86-13.74-2.47-21.41-3.67-16.25-2.53-26.74-4.24-38.31-6.26C84.05,45,77.85,43.93,73.74,43a91.88,91.88,0,0,1-9.39-2.52c-2.61-1-6.3-2-7.08-5h0Zm9.14,8.87a10.93,10.93,0,0,1,1.34.41c1.33,0.45,3.09,1,5.13,1.55,1.43,0.4,3,.82,4.68,1.25,2.14,0.55,3.9,1,3.92,1,0.24,0.27,3.82,11.7,5,16.09,0.47,1.68.82,3.07,0.79,3.1a7.81,7.81,0,0,1-.87-1.37,74.05,74.05,0,0,0-18.3-20.67C67.18,45,66.41,44.4,66.41,44.37ZM83.88,49.2a12.88,12.88,0,0,1,1.91.33c6,1.34,16.84,3.42,23.78,4.59a10.6,10.6,0,0,1,2.11.47,3.38,3.38,0,0,1-1,.6c-1.17.59-5.88,3.41-7.46,4.46a69.49,69.49,0,0,0-10.05,8c-1,1-1.9,1.87-1.93,1.87a9.67,9.67,0,0,1-.4-1.34,118.09,118.09,0,0,0-6.34-17.37,17.46,17.46,0,0,1-.7-1.62h0ZM114.62,55c0.2,0.07.58,1.26,1.26,3.94a59.08,59.08,0,0,1,1.7,16.24c-0.06,1.48-.15,2.86-0.21,3.07l-0.11.37-1.83-.59c-3.78-1.21-10-3-15.25-4.49-3-.83-5.47-1.57-5.47-1.65A81.23,81.23,0,0,1,101,65.65c3.6-3.18,13.3-10.73,13.64-10.61h0Zm2.44,0.35c0.11-.1,14.69,2.42,21.31,3.69,4.94,0.95,12.08,2.44,12.51,2.62,0.21,0.09-.53.49-2.9,1.56a152.6,152.6,0,0,0-23.24,12.63c-1.82,1.22-3.33,2.21-3.36,2.21a22,22,0,0,1-.06-2.26,49.9,49.9,0,0,0-3.82-19.28,6.46,6.46,0,0,1-.44-1.17h0Zm37.69,7.45a26.88,26.88,0,0,1-.78,4.69c-1.29,5.28-4.71,13.13-8.92,20.5a21.85,21.85,0,0,1-1.49,2.41,14.68,14.68,0,0,1-2.13-1.12,112.87,112.87,0,0,0-13.92-6.81c-1.43-.59-2.65-1.12-2.71-1.17C124.56,81.12,136,73.57,142,69.95,146.83,67,154.61,62.71,154.75,62.85Zm2.7,0.42c0.33,0,6.79,1.76,10.13,2.76a211.85,211.85,0,0,1,24.16,8.83L194.34,76l-1.83.42a263.39,263.39,0,0,0-40.9,12.65c-1,.42-2,0.77-2,0.77a8.91,8.91,0,0,1,.73-1.8,72.92,72.92,0,0,0,6.86-23.64,2.5,2.5,0,0,1,.26-1.18h0ZM93.19,78c0.1-.1,5,1.05,7.71,1.8,4,1.13,12.62,4,12.62,4.23,0,0-.95.87-2.1,1.83-4.64,3.88-9.12,7.94-14.48,13.12-1.59,1.54-2.94,2.78-3,2.78a0.56,0.56,0,0,1-.06-0.5,80.87,80.87,0,0,0-.49-21.41A12.24,12.24,0,0,1,93.19,78h0Zm103.61,0.1c0.07,0.07-2.28,3.76-3.75,5.86-2.14,3.07-5.24,7.09-12.31,16-3.71,4.67-7.9,10-9.31,11.74S168.83,115,168.8,115a15.88,15.88,0,0,1-1-1.42,74.06,74.06,0,0,0-14.35-15.88c-1.05-.88-2.24-1.84-2.63-2.13a4.16,4.16,0,0,1-.72-0.61c0-.1,6-2.68,10.62-4.55,8-3.26,18.95-7.16,27.13-9.67,4.32-1.32,8.91-2.64,9-2.58h0Zm2.72,0.71a9.06,9.06,0,0,1,2,1,119.85,119.85,0,0,1,23.72,17.81c1.89,1.86,6.51,6.67,6.45,6.71l-3.55.28c-14.94,1.12-34,4.3-52.44,8.73-1.25.3-2.33,0.55-2.4,0.55s1.3-1.37,3-3c10.8-10.38,15.73-16.94,21.53-28.65,0.86-1.75,1.6-3.25,1.63-3.34h0Zm-79,8.09c0.49,0.11,5.1,2.25,8.58,4,3.18,1.59,8,4.16,8.23,4.38,0,0-1.67.91-3.77,2-6.67,3.34-12.38,6.49-18.34,10.13-1.7,1-3.12,1.89-3.17,1.89s-0.09-.13.86-1.87a75.17,75.17,0,0,0,7.21-19.54,1.35,1.35,0,0,1,.4-1h0Zm-4.64.83A66.5,66.5,0,0,1,114,94.61,88.86,88.86,0,0,1,107.78,109c-0.55,1-1.4,2.46-1.89,3.25L105,113.7l-2-1.92a26.08,26.08,0,0,0-6.6-4.87,9.85,9.85,0,0,1-1.71-1c0-.29,6-5.8,10.72-9.75C108.78,93.32,115.82,87.69,115.9,87.78Zm28.2,11.6,1.73,1.12a138.37,138.37,0,0,1,12.25,9c2,1.67,5.91,5.17,6.71,6l0.43,0.45-2.87.8c-16.25,4.51-28.81,8.52-43.46,13.91-1.63.6-3,1.09-3.13,1.09s-0.4.18,3.25-3.18a156.56,156.56,0,0,0,23.84-27.37Zm-7.41,1.86c0.08,0.08-4.8,6.93-7.71,10.8-3.47,4.63-9.66,12.36-13.92,17.39-1.78,2.1-3.3,3.85-3.39,3.88a2.43,2.43,0,0,1-.15-1.3,29.75,29.75,0,0,0-3-12.77c-0.81-1.64-.95-2-0.78-2.19,0.67-.61,11-6.5,17.52-10C129.73,104.64,136.61,101.14,136.69,101.23Zm-44.82,11a15.39,15.39,0,0,1,1.84.93,38.83,38.83,0,0,1,6.09,4.13A11.16,11.16,0,0,1,97.74,119c-3.36,2.43-8.49,6.29-11.45,8.65-3.13,2.49-3.23,2.56-2.88,2a63.5,63.5,0,0,0,4.75-8.2,66.18,66.18,0,0,0,3-7.42,6.64,6.64,0,0,1,.75-1.8h0Zm11.94,9.37c0.16,0,.39.28,1.35,1.72a25.72,25.72,0,0,1,4,10.34l0.08,0.7-4.85,1.88c-8.7,3.38-16.72,6.71-22.13,9.18-1.51.69-4.19,2-5.93,2.84s-3.17,1.56-3.17,1.52,1.1-.86,2.44-1.83a143.77,143.77,0,0,0,26.68-24.59c0.74-.9,1.41-1.69,1.49-1.74l0.07,0h0Zm-5.51,1.37c0.14,0.14-3.92,4.73-6.65,7.52a118.34,118.34,0,0,1-22,17.79l-2.14,1.34c-0.23.13,0.07-.21,3.76-4.23,2.33-2.54,4.11-4.64,6.13-7.26a12.2,12.2,0,0,1,3.53-3.38c5.25-3.79,17.26-11.92,17.4-11.78h0Z" transform="translate(-11.73 -11.04)"/></g><path class="cls-2" d="M74.61,248.74c-14.9,0-28.93-1.12-39.51-3.16-13.33-2.57-19.28-6.09-19.29-11.4l-0.07-29L21.53,208c4.51,2.22,10,3.29,13.35,3.92,10.64,2.05,24.75,3.18,39.73,3.18H75c15,0,29.25-1.17,40-3.26,3.31-.64,8.83-1.72,13.35-3.93l5.74-2.81L134.14,234c0,5.34-6,8.88-19.38,11.48C104.11,247.57,90,248.72,75,248.74H74.61Z" transform="translate(-11.73 -11.04)"/><path class="cls-3" d="M130.09,211.53l0.05,22.5c0,5.88-24.67,10.68-55.14,10.71H74.61c-30.29,0-54.79-4.72-54.79-10.57l-0.05-22.56c5,2.45,10.85,3.58,14.36,4.26,10.89,2.1,25.27,3.26,40.49,3.26H75c15.31,0,29.78-1.2,40.75-3.33,3.51-.68,9.35-1.82,14.34-4.26m8-12.8-11.48,5.62c-4,2-9.24,3-12.35,3.59-10.5,2-24.43,3.17-39.24,3.19H74.61c-14.74,0-28.58-1.1-39-3.11-3.11-.6-8.32-1.6-12.35-3.58l-11.56-5.69,0,12.88,0.05,22.56c0,9.73,12,13.29,22.53,15.31,10.82,2.09,25.12,3.23,40.27,3.23H75c15.24,0,29.63-1.2,40.53-3.31,10.54-2,22.63-5.65,22.62-15.41l-0.05-22.51,0-12.79h0Z" transform="translate(-11.73 -11.04)"/><path class="cls-2" d="M74.61,214c-14.9,0-28.93-1.12-39.51-3.16-13.33-2.57-19.28-6.09-19.29-11.4L15.76,176v-6.13l5.76,2.83c4.5,2.21,10,3.28,13.34,3.92,10.66,2.05,24.77,3.18,39.74,3.18H75c15,0,29.25-1.18,40-3.26,3.3-.64,8.82-1.71,13.34-3.92l5.76-2.81v6.43l0.06,23c0,5.34-6,8.88-19.38,11.48C104.1,212.8,90,213.95,75,214H74.61Z" transform="translate(-11.73 -11.04)"/><path class="cls-3" d="M130.08,176.23v0l0.06,23c0,5.88-24.68,10.68-55.14,10.72H74.61c-30.29,0-54.79-4.72-54.8-10.57l-0.06-23s0-.07,0-0.1c5,2.45,10.85,3.58,14.35,4.26,10.89,2.1,25.27,3.26,40.49,3.26H75c15.31,0,29.78-1.21,40.75-3.34,3.51-.68,9.35-1.82,14.34-4.26m8-12.81L126.57,169c-4,2-9.24,3-12.35,3.59-10.5,2-24.43,3.17-39.23,3.19H74.62c-14.72,0-28.56-1.1-39-3.11-3.11-.6-8.32-1.6-12.34-3.58l-11.53-5.66V176q0,0.23,0,.46l0.06,23c0,9.73,12,13.3,22.53,15.32C45.16,216.82,59.47,218,74.61,218H75c15.24,0,29.63-1.2,40.53-3.32,10.54-2,22.63-5.65,22.62-15.41l-0.06-23v-0.48h0V163.42h0Z" transform="translate(-11.73 -11.04)"/><path class="cls-2" d="M74.62,178.67c-14.9,0-28.93-1.12-39.51-3.16-13.33-2.57-19.28-6.09-19.29-11.4l-0.06-23c0-5.34,6-8.88,19.39-11.48,10.66-2.07,24.78-3.22,39.77-3.24h0.4c14.9,0,28.93,1.12,39.5,3.16,13.32,2.57,19.27,6.09,19.27,11.4l0.06,23c0,5.34-6,8.88-19.38,11.48C104.1,177.5,90,178.65,75,178.67H74.62Z" transform="translate(-11.73 -11.04)"/><path class="cls-3" d="M75.31,130.39c30.29,0,54.77,4.72,54.77,10.57l0.06,23c0,5.87-24.67,10.67-55.14,10.71H74.62c-30.29,0-54.79-4.72-54.8-10.57l-0.06-23c0-5.88,24.69-10.68,55.16-10.71h0.4m0-8h-0.4c-15.24,0-29.63,1.2-40.53,3.31-10.54,2-22.63,5.65-22.62,15.41l0.06,23c0,9.73,12,13.3,22.53,15.32,10.82,2.09,25.12,3.24,40.27,3.24H75c15.24,0,29.63-1.2,40.53-3.31,10.54-2,22.63-5.65,22.62-15.41l-0.06-23c0-9.73-12-13.29-22.52-15.32-10.81-2.09-25.11-3.23-40.26-3.23h0Z" transform="translate(-11.73 -11.04)"/></svg>